<?xml version="1.0" encoding="UTF-8"?>
<svg width="16px" height="16px" viewBox="0 0 16 16" version="1.1" xmlns="http://www.w3.org/2000/svg" xmlns:xlink="http://www.w3.org/1999/xlink">
    <title>insta</title>
    <defs></defs>
    <g id="pager" stroke="none" stroke-width="1" fill="none" fill-rule="evenodd">
        <g id="01-Start" transform="translate(-49.000000, -619.000000)">
            <g id="Group-4" transform="translate(28.000000, 527.000000)">
                <g id="insta" transform="translate(20.000000, 91.000000)">
                    <rect id="Bounding-Box" x="0" y="0" width="18" height="18"></rect>
                    <path d="M9,2.44133333 C11.136,2.44133333 11.3893333,2.44933333 12.2326667,2.488 C13.1433333,2.52933333 13.988,2.712 14.638,3.362 C15.288,4.012 15.4706667,4.85666667 15.512,5.76733333 C15.5506667,6.61066667 15.5586667,6.864 15.5586667,9 C15.5586667,11.136 15.5506667,11.3893333 15.512,12.2326667 C15.4706667,13.1433333 15.288,13.988 14.638,14.638 C13.988,15.288 13.1433333,15.4706667 12.2326667,15.512 C11.3893333,15.5506667 11.136,15.5586667 9,15.5586667 C6.864,15.5586667 6.61066667,15.5506667 5.76733333,15.512 C4.85666667,15.4706667 4.012,15.288 3.362,14.638 C2.712,13.988 2.52933333,13.1433333 2.488,12.2326667 C2.44933333,11.3893333 2.44133333,11.136 2.44133333,9 C2.44133333,6.864 2.44933333,6.61066667 2.488,5.76733333 C2.52933333,4.85666667 2.712,4.012 3.362,3.362 C4.012,2.712 4.85666667,2.52933333 5.76733333,2.488 C6.61066667,2.44933333 6.864,2.44133333 9,2.44133333 L9,2.44133333 Z M9,1 C11.1726667,1 11.4453333,1.00933333 12.2986667,1.048 C13.5986667,1.10733333 14.7406667,1.426 15.6573333,2.34266667 C16.574,3.25933333 16.8926667,4.40133333 16.952,5.70133333 C16.9906667,6.55466667 17,6.82733333 17,9 C17,11.1726667 16.9906667,11.4453333 16.952,12.2986667 C16.8926667,13.5986667 16.574,14.7406667 15.6573333,15.6573333 C14.7406667,16.574 13.5986667,16.8926667 12.2986667,16.952 C11.4453333,16.9906667 11.1726667,17 9,17 C6.82733333,17 6.55466667,16.9906667 5.70133333,16.952 C4.40133333,16.8926667 3.25933333,16.574 2.34266667,15.6573333 C1.426,14.7406667 1.10733333,13.5986667 1.048,12.2986667 C1.00933333,11.4453333 1,11.1726667 1,9 C1,6.82733333 1.00933333,6.55466667 1.048,5.70133333 C1.10733333,4.40133333 1.426,3.25933333 2.34266667,2.34266667 C3.25933333,1.426 4.40133333,1.10733333 5.70133333,1.048 C6.55466667,1.00933333 6.82733333,1 9,1 Z M9,4.892 C6.73133333,4.892 4.892,6.73133333 4.892,9 C4.892,11.2686667 6.73133333,13.108 9,13.108 C11.2686667,13.108 13.108,11.2686667 13.108,9 C13.108,6.73133333 11.2686667,4.892 9,4.892 Z M9,11.6666667 C7.52733333,11.6666667 6.33333333,10.4726667 6.33333333,9 C6.33333333,7.52733333 7.52733333,6.33333333 9,6.33333333 C10.4726667,6.33333333 11.6666667,7.52733333 11.6666667,9 C11.6666667,10.4726667 10.4726667,11.6666667 9,11.6666667 Z M13.2706667,5.68933333 C13.80086,5.68933333 14.2306667,5.25952669 14.2306667,4.72933333 C14.2306667,4.19913997 13.80086,3.76933333 13.2706667,3.76933333 C12.7404733,3.76933333 12.3106667,4.19913997 12.3106667,4.72933333 C12.3106667,5.25952669 12.7404733,5.68933333 13.2706667,5.68933333 Z" id="Mask" fill="#C200FF"></path>
                </g>
            </g>
        </g>
    </g>
</svg>
