<?xml version="1.0" encoding="UTF-8"?>
<svg width="120px" height="47px" viewBox="0 0 120 47" version="1.1" xmlns="http://www.w3.org/2000/svg" xmlns:xlink="http://www.w3.org/1999/xlink">
    <!-- Generator: Sketch 47.1 (45422) - http://www.bohemiancoding.com/sketch -->
    <title>logos/pager-full-logo</title>
    <desc>Created with Sketch.</desc>
    <defs></defs>
    <g id="pager" stroke="none" stroke-width="1" fill="none" fill-rule="evenodd">
        <g id="01-Start" transform="translate(-30.000000, -46.000000)">
            <g id="logos/pager-full-logo" transform="translate(29.000000, 45.000000)">
                <g id="pager-full-logo">
                    <path d="M96.84,31.5 C95.5673907,31.5088064 94.3047971,31.2746156 93.12,30.81 C90.7962099,29.9324759 88.9488363,28.1177671 88.03,25.81 C87.5246958,24.5377245 87.2733032,23.1788457 87.29,21.81 C87.2661923,20.4758198 87.5075249,19.1501902 88,17.91 C88.4626811,16.7614501 89.1416453,15.7124504 90,14.82 C90.8731781,13.9566808 91.9101751,13.2766828 93.05,12.82 C94.2300828,12.3360148 95.4945546,12.0912783 96.77,12.1 C98.0592892,12.0910489 99.3407702,12.3006843 100.56,12.72 C101.731633,13.1162068 102.798316,13.7726267 103.68,14.64 C104.6034,15.5623306 105.289635,16.6946177 105.68,17.94 C106.142222,19.4748555 106.27847,21.0893899 106.08,22.68 L89.19,22.68 C89.2701863,23.7230265 89.5484878,24.7412026 90.01,25.68 C90.8494139,27.3490798 92.3055442,28.6258837 94.07,29.24 C94.9581382,29.5608335 95.8956946,29.7232981 96.84,29.72 C97.4810614,29.7137994 98.1202801,29.6502122 98.75,29.53 C99.3924771,29.4058189 100.021898,29.2216799 100.63,28.98 C101.220276,28.7403069 101.783433,28.4386158 102.31,28.08 C102.806373,27.7425759 103.248158,27.3311424 103.62,26.86 L105,27.88 C104.544678,28.4870287 103.99822,29.0199934 103.38,29.46 C102.756247,29.9052703 102.085578,30.2808454 101.38,30.58 C100.668303,30.8834387 99.9279174,31.1145997 99.17,31.27 C98.4028982,31.4238508 97.6223774,31.5008979 96.84,31.5 Z M89.19,21 L104.46,21 C104.558774,18.9883676 103.786294,17.0316611 102.34,15.63 C100.808713,14.3352498 98.8428237,13.6704219 96.84,13.77 C95.896683,13.7683113 94.9599644,13.9272492 94.07,14.24 C93.1978672,14.5493864 92.395734,15.028627 91.71,15.65 C90.991839,16.3139996 90.4108748,17.1124007 90,18 C89.5549798,18.9443282 89.2807438,19.9600172 89.19,21 L89.19,21 Z" id="Shape" fill="#6FE7E0" fill-rule="nonzero"></path>
                    <path d="M57.05,19.39 C56.6830836,18.6770154 56.1346466,18.0733897 55.46,17.64 C54.6442154,17.1707079 53.7097204,16.9483745 52.77,17 C52.1231383,16.9915333 51.4809345,17.1104599 50.88,17.35 C50.3419818,17.5639079 49.8523269,17.8835438 49.44,18.29 C49.0111231,18.7230915 48.6713744,19.2361121 48.44,19.8 C48.183368,20.4349847 48.0575226,21.1152301 48.07,21.8 C48.0540959,22.504519 48.1799196,23.2050511 48.44,23.86 C48.6713744,24.4238879 49.0111231,24.9369085 49.44,25.37 C49.8543946,25.7786611 50.3477824,26.0985126 50.89,26.31 C51.4883123,26.5465338 52.1266517,26.6653736 52.77,26.66 C53.7121527,26.7103026 54.6481206,26.4806599 55.46,26 C56.1368321,25.5691993 56.6858697,24.9649126 57.05,24.25 C57.7972555,22.7126611 57.7972555,20.9173389 57.05,19.38 L57.05,19.39 Z" id="Shape"></path>
                    <path d="M30.17,34.87 C31.1188471,34.5383891 31.9851523,34.0063277 32.71,33.31 C33.447822,32.5720059 34.0264138,31.6905041 34.41,30.72 C34.8596942,29.5777291 35.0772638,28.3572996 35.05,27.13 C35.0780704,25.9026382 34.8604726,24.6820505 34.41,23.54 C33.6800462,21.6151352 32.1231076,20.120621 30.17,19.47 C29.1477068,19.1343844 28.0756942,18.9754425 27,19 C25.9162202,18.9871724 24.8411358,19.1947046 23.84,19.61 C22.9000816,20.0068318 22.0472695,20.5844336 21.33,21.31 C20.6000316,22.0522607 20.0314579,22.9374653 19.66,23.91 C19.262008,24.9643404 19.0619924,26.0830718 19.07,27.21 C19.0577748,28.3358721 19.264966,29.4533462 19.68,30.5 C20.0597336,31.4760009 20.6348209,32.3641534 21.37,33.11 C22.0872695,33.8355664 22.9400816,34.4131682 23.88,34.81 C24.8695726,35.2171752 25.9299414,35.4244909 27,35.42 C28.0803028,35.4188198 29.1524392,35.2328024 30.17,34.87 Z" id="Shape"></path>
                    <path d="M24.36,43.16 C24.1152884,43.1774919 23.8883236,43.2941256 23.731635,43.4829071 C23.5749464,43.6716885 23.5021161,43.9162538 23.53,44.16 C23.5453873,44.396243 23.6542648,44.6166202 23.8325487,44.772384 C24.0108326,44.9281479 24.2438294,45.0064608 24.48,44.99 C33.1415655,44.3951991 40.6432821,38.7620562 43.63,30.61 C43.1378617,30.086848 42.6928053,29.5213252 42.3,28.92 C39.8465987,36.9242468 32.7121903,42.5872331 24.36,43.16 L24.36,43.16 Z" id="Shape" fill="#74E7DF" fill-rule="nonzero"></path>
                    <path d="M60.46,12.39 L60.46,16.5 C59.7310311,15.0902492 58.5763492,13.9460643 57.16,13.23 C54.639941,11.9411233 51.6844638,11.8097688 49.06,12.87 C46.9559859,13.6829819 45.2375713,15.2620657 44.25,17.29 C44.15,17.48 44.06,17.66 43.98,17.85 C43.4547542,19.0962967 43.1926105,20.4376553 43.21,21.79 C43.1989323,23.143748 43.4678961,24.4851621 44,25.73 C44.1810274,26.1688551 44.3949703,26.593398 44.64,27 C45.014388,27.6527236 45.4715016,28.2543659 46,28.79 C46.8530728,29.6543649 47.8740198,30.3349963 49,30.79 C50.1784135,31.2667451 51.438827,31.5079563 52.71,31.5 C54.2074253,31.5051595 55.6834775,31.1447282 57.01,30.45 C58.4151348,29.6914251 59.5870881,28.564414 60.4,27.19 L60.4,30.79 C60.8072219,30.0568817 61.4689176,29.4983536 62.26,29.22 L62.26,12.39 L60.46,12.39 Z M59.73,25.61 C59.1326615,26.7910823 58.231853,27.7919807 57.12,28.51 C55.8189265,29.3236611 54.3034593,29.7277857 52.77,29.67 C51.742539,29.6758976 50.7237,29.4823182 49.77,29.1 C48.8563819,28.7380328 48.0261443,28.1936147 47.33,27.5 C46.622143,26.7843255 46.0645444,25.9343276 45.69,25 C45.2704732,23.9756207 45.062961,22.8768267 45.08,21.77 C45.0630808,20.6761434 45.2706918,19.59044 45.69,18.58 C46.0685175,17.6590189 46.6220725,16.8201963 47.32,16.11 C48.0193076,15.4227672 48.848879,14.8821859 49.76,14.52 C50.7137,14.1376818 51.732539,13.9441024 52.76,13.95 C54.2940158,13.8872057 55.8109378,14.2917182 57.11,15.11 C58.221853,15.8280193 59.1226615,16.8289177 59.72,18.01 C60.8930903,20.3934781 60.8930903,23.1865219 59.72,25.57 L59.73,25.61 Z" id="Shape" fill="#C400FF" fill-rule="nonzero"></path>
                    <path d="M82.22,24.05 C82.5852062,23.1652729 82.7721145,22.2171379 82.77,21.26 C82.7994432,20.1083503 82.5740718,18.9644198 82.11,17.91 C81.695112,17.0175272 81.0911667,16.2259153 80.34,15.59 C79.6014018,14.9799167 78.7478853,14.5242545 77.83,14.25 C76.9107702,13.9791581 75.9582682,13.8377974 75,13.83 C74.063012,13.8358758 73.1323686,13.9842392 72.24,14.27 C71.3285841,14.5645218 70.4781509,15.0219261 69.73,15.62 C68.9624855,16.2560084 68.3329545,17.0420713 67.88,17.93 C67.3740535,18.9653773 67.1269806,20.1080895 67.16,21.26 C67.1315438,22.3872165 67.339332,23.5079099 67.77,24.55 C68.1449304,25.4308431 68.7121052,26.2166877 69.43,26.85 C70.1478539,27.4752485 70.9895019,27.9420735 71.9,28.22 C72.9024703,28.5364565 73.9488321,28.6917231 75,28.68 C76.1100656,28.6970096 77.2121213,28.4895238 78.24,28.07 C79.158144,27.6927156 79.9912533,27.1350425 80.69,26.43 C81.3517679,25.7451737 81.8717224,24.9363557 82.22,24.05 L82.22,24.05 Z" id="Shape"></path>
                    <path d="M78.59,29.4 C79.55268,29.1744943 80.4583154,28.7523184 81.25,28.16 C81.9882888,27.6046984 82.6273065,26.9284892 83.14,26.16 C83.6287462,25.4145975 83.9997627,24.5983611 84.24,23.74 C84.473542,22.9235883 84.5946579,22.0791415 84.6,21.23 C84.6077568,20.4803678 84.5305986,19.7322682 84.37,19 C84.235716,18.4039077 84.0379194,17.8239276 83.78,17.27 C83.5681048,16.7970138 83.3066424,16.3478349 83,15.93 C82.68,15.52 82.35,15.14 82,14.79 L83.94,12.5 L82.7,11.44 L80.76,13.72 C79.9157326,13.1644813 78.9820816,12.758546 78,12.52 C77.0228949,12.2470986 76.0144221,12.1025508 75,12.09 C73.8375718,12.0947878 72.6832495,12.2837996 71.58,12.65 C70.4401013,13.0292458 69.3817029,13.6195065 68.46,14.39 C67.507562,15.1791435 66.728009,16.1561378 66.17,17.26 C65.5670789,18.5055375 65.2688817,19.8765589 65.3,21.26 C65.2681853,22.6003806 65.5062375,23.9334725 66,25.18 C66.4467837,26.2724928 67.1297764,27.2525873 68,28.05 C68.8886229,28.8425017 69.9299686,29.4448487 71.06,29.82 C72.3237732,30.2394118 73.6485396,30.4455617 74.98,30.43 C75.8739353,30.4316285 76.7653187,30.5254583 77.64,30.71 C78.5081256,30.8854787 79.3444085,31.1923405 80.12,31.62 C80.8355535,32.0197236 81.4536903,32.5729731 81.93,33.24 C82.4092733,33.9280133 82.6546784,34.7518734 82.63,35.59 C82.6649268,36.413009 82.4449074,37.2267316 82,37.92 C81.5429524,38.5726751 80.9404256,39.1101564 80.24,39.49 C79.4727882,39.9082989 78.6468101,40.2083481 77.79,40.38 C76.8757636,40.5719578 75.9441709,40.6691383 75.01,40.67 C74.0862399,40.6684925 73.1661123,40.5543161 72.27,40.33 C71.4200324,40.115735 70.6144097,39.7535433 69.89,39.26 C69.2083647,38.7976828 68.6379557,38.189702 68.22,37.48 C67.8151042,36.7701056 67.6014673,35.9672445 67.6,35.15 C67.2341993,35.8463027 66.6414543,36.3967088 65.92,36.71 C66.0446028,37.2168126 66.2292416,37.7069447 66.47,38.17 C66.9583302,39.0919247 67.6406564,39.8970697 68.47,40.53 C69.3703533,41.201529 70.3876059,41.6999828 71.47,42 C72.6335652,42.3346201 73.8393137,42.4996527 75.05,42.49 C76.2565702,42.4960724 77.4591867,42.3516241 78.63,42.06 C79.6973208,41.7924365 80.7116493,41.3461319 81.63,40.74 C82.4862353,40.1861688 83.2045321,39.4439287 83.73,38.57 C84.2660897,37.6628926 84.5363715,36.6233473 84.51,35.57 C84.5793221,34.026945 83.9733157,32.5301821 82.85,31.47 C81.6430336,30.4078907 80.1709027,29.6925594 78.59,29.4 Z M75,28.68 C73.9488321,28.6917231 72.9024703,28.5364565 71.9,28.22 C70.9895019,27.9420735 70.1478539,27.4752485 69.43,26.85 C68.7121052,26.2166877 68.1449304,25.4308431 67.77,24.55 C67.339332,23.5079099 67.1315438,22.3872165 67.16,21.26 C67.1269806,20.1080895 67.3740535,18.9653773 67.88,17.93 C68.3329545,17.0420713 68.9624855,16.2560084 69.73,15.62 C70.4781509,15.0219261 71.3285841,14.5645218 72.24,14.27 C73.1323686,13.9842392 74.063012,13.8358758 75,13.83 C75.9683265,13.8349964 76.9311208,13.9763857 77.86,14.25 C78.7778853,14.5242545 79.6314018,14.9799167 80.37,15.59 C81.1211667,16.2259153 81.725112,17.0175272 82.14,17.91 C82.6040718,18.9644198 82.8294432,20.1083503 82.8,21.26 C82.7966917,23.1923365 82.0396957,25.0471562 80.69,26.43 C79.9912533,27.1350425 79.158144,27.6927156 78.24,28.07 C77.2121213,28.4895238 76.1100656,28.6970096 75,28.68 L75,28.68 Z" id="Shape" fill="#0062B5" fill-rule="nonzero"></path>
                    <path d="M117,12.2 C116.385018,12.1988477 115.771628,12.262533 115.17,12.39 C114.560974,12.5202923 113.972325,12.732206 113.42,13.02 C112.861581,13.3092504 112.349306,13.6799758 111.9,14.12 C111.424791,14.5885179 111.035546,15.1368448 110.75,15.74 L110.68,12.39 L108.93,12.39 L108.93,31.18 C109.418896,30.6268571 110.06975,30.2419433 110.79,30.08 L110.79,20.23 C110.78378,19.3990863 110.947109,18.5756355 111.27,17.81 C111.57566,17.0661728 112.020255,16.3874012 112.58,15.81 C113.157094,15.2346489 113.835023,14.7702675 114.58,14.44 C115.346712,14.124658 116.171357,13.9747225 117,14 C117.550108,13.9995458 118.097971,14.0701294 118.63,14.21 C119.179038,14.3538211 119.704452,14.5761114 120.19,14.87 L121,13.3 C119.806409,12.5421655 118.413257,12.1590489 117,12.2 L117,12.2 Z" id="Shape" fill="#7D59F9" fill-rule="nonzero"></path>
                    <path d="M21.52,1.05 C13.8640462,1.56425072 7.02916305,6.03030747 3.48370822,12.8352934 C-0.0617466102,19.6402792 0.194535298,27.8008926 4.16,34.37 C5.15235323,35.9958403 6.34874233,37.487966 7.72,38.81 C7.57183266,39.1894453 7.49389831,39.5926708 7.49,40 C7.49000788,41.9316931 9.05498391,43.4981497 10.9866762,43.4999841 C12.9183685,43.5018186 14.4863169,41.9383373 14.4899937,40.0066476 C14.4936704,38.074958 12.9316853,36.5055191 11,36.5 C10.1819182,36.5043323 9.391834,36.7983995 8.77,37.33 C7.5967257,36.1590422 6.56621933,34.8532866 5.7,33.44 C4.03324663,30.6867375 3.05556995,27.5718939 2.85,24.36 C2.16801431,14.427341 8.82491645,5.47895152 18.534337,3.27668634 C28.2437576,1.07442115 38.1099128,6.27509428 41.78,15.53 C42.1361071,14.9098527 42.5442405,14.3210701 43,13.77 C39.1716351,5.48492173 30.625328,0.423980099 21.52,1.05 Z M11,38 C12.1045695,38 13,38.8954305 13,40 C13,41.1045695 12.1045695,42 11,42 C9.8954305,42 9,41.1045695 9,40 C9,38.8954305 9.8954305,38 11,38 Z" id="Shape" fill="#6FE7E0" fill-rule="nonzero"></path>
                    <path d="M36.26,22.93 C35.8116233,21.7652282 35.1311834,20.7037419 34.26,19.81 C33.4078359,18.9445349 32.3866463,18.2637418 31.26,17.81 C30.0699155,17.3416925 28.8082458,17.0812406 27.53,17.04 C25.7434567,17.0080536 23.9825513,17.4681723 22.44,18.37 C20.9571764,19.210109 19.7592547,20.4741949 19,22 L19,17.33 L17.08,17.33 L17.08,46.33 C17.8239316,46.5954843 18.4857262,47.050468 19,47.65 L19,32.4 C19.7469652,33.9413119 20.9426478,35.2206574 22.43,36.07 C23.8243647,36.8585588 25.3981088,37.2752394 27,37.28 C28.3210199,37.287207 29.6334533,37.0673406 30.88,36.63 C32.069821,36.1963559 33.153803,35.5146063 34.06,34.63 C34.9819476,33.7266013 35.7041621,32.6398729 36.18,31.44 C36.7247677,30.0685042 37.0030692,28.6057246 37,27.13 C37.0263664,25.6953885 36.7750878,24.2692124 36.26,22.93 L36.26,22.93 Z M34.41,30.72 C34.0264138,31.6905041 33.447822,32.5720059 32.71,33.31 C31.9851523,34.0063277 31.1188471,34.5383891 30.17,34.87 C29.1627504,35.2147271 28.1045832,35.3871441 27.04,35.38 C25.9699414,35.3844909 24.9095726,35.1771752 23.92,34.77 C22.9800816,34.3731682 22.1272695,33.7955664 21.41,33.07 C20.6748209,32.3241534 20.0997336,31.4360009 19.72,30.46 C19.304966,29.4133462 19.0977748,28.2958721 19.11,27.17 C19.1019924,26.0430718 19.302008,24.9243404 19.7,23.87 C20.0714579,22.8974653 20.6400316,22.0122607 21.37,21.27 C22.0872695,20.5444336 22.9400816,19.9668318 23.88,19.57 C24.8715371,19.1736815 25.9323816,18.9798734 27,19 C28.0645832,18.9928559 29.1227504,19.1652729 30.13,19.51 C32.0831076,20.160621 33.6400462,21.6551352 34.37,23.58 C34.8204726,24.7220505 35.0380704,25.9426382 35.01,27.17 C35.0447066,28.381228 34.8408372,29.5874555 34.41,30.72 L34.41,30.72 Z" id="Shape" fill="#F61FEC" fill-rule="nonzero"></path>
                </g>
            </g>
        </g>
    </g>
</svg>