<?xml version="1.0" encoding="UTF-8"?>
<svg width="16px" height="16px" viewBox="0 0 16 16" version="1.1" xmlns="http://www.w3.org/2000/svg" xmlns:xlink="http://www.w3.org/1999/xlink">
    <!-- Generator: Sketch 47.1 (45422) - http://www.bohemiancoding.com/sketch -->
    <title>pinterest</title>
    <desc>Created with Sketch.</desc>
    <defs>
        <path d="M10,2 C5.6,2 2,5.6 2,10 C2,13.4 4.13333333,16.2666667 7.06666667,17.4666667 C7,16.8666667 6.93333333,15.8666667 7.06666667,15.2 C7.2,14.6 8,11.2 8,11.2 C8,11.2 7.8,10.6666667 7.8,10 C7.8,8.86666667 8.46666667,8.06666667 9.26666667,8.06666667 C9.93333333,8.06666667 10.2666667,8.6 10.2666667,9.2 C10.2666667,9.86666667 9.8,10.9333333 9.6,11.8666667 C9.4,12.6666667 10,13.3333333 10.8,13.3333333 C12.2,13.3333333 13.3333333,11.8666667 13.3333333,9.66666667 C13.3333333,7.73333333 11.9333333,6.4 10,6.4 C7.73333333,6.4 6.4,8.13333333 6.4,9.86666667 C6.4,10.5333333 6.66666667,11.2666667 7,11.6666667 C7.06666667,11.7333333 7.06666667,11.8 7.06666667,11.8666667 C7,12.1333333 6.86666667,12.6666667 6.86666667,12.8 C6.8,12.9333333 6.73333333,13 6.6,12.9333333 C5.6,12.4666667 5,11 5,9.86666667 C5,7.33333333 6.86666667,5 10.2666667,5 C13.0666667,5 15.2,7 15.2,9.6 C15.2,12.3333333 13.4666667,14.6 11.0666667,14.6 C10.2666667,14.6 9.46666667,14.2 9.2,13.6666667 C9.2,13.6666667 8.8,15.2 8.73333333,15.6 C8.53333333,16.2666667 8.06666667,17.1333333 7.73333333,17.6666667 C8.4,17.8666667 9.2,18 10,18 C14.4,18 18,14.4 18,10 C18,5.6 14.4,2 10,2 Z" id="path-1"></path>
    </defs>
    <g id="pager" stroke="none" stroke-width="1" fill="none" fill-rule="evenodd">
        <g id="01-Start" transform="translate(-32.000000, -645.000000)">
            <g id="Group-4" transform="translate(28.000000, 527.000000)">
                <g id="pinterest" transform="translate(2.000000, 116.000000)">
                    <rect id="Bounding-Box" x="0" y="0" width="24" height="24"></rect>
                    <mask id="mask-2" fill="white">
                        <use xlink:href="#path-1"></use>
                    </mask>
                    <use id="Mask" fill="#7D5FF5" xlink:href="#path-1"></use>
                </g>
            </g>
        </g>
    </g>
</svg>