<svg xmlns="http://www.w3.org/2000/svg" viewBox="0 0 69.49 63.97"><defs><style>.cls-1{fill:none;}.cls-2{fill:#74e7df;}</style></defs><title>step1</title><g id="Layer_2" data-name="Layer 2"><g id="Layer_2-2" data-name="Layer 2"><path class="cls-1" d="M62,24a5,5,0,0,0-.68,9.93A5.23,5.23,0,0,0,62,34a4.89,4.89,0,0,0,1.95-.4A5,5,0,0,0,62,24Z"/><path class="cls-2" d="M32.8,52.27a1.3,1.3,0,0,0,1.36,1.24h.4a1.3,1.3,0,0,0,1.36-1.24V12.12a1.3,1.3,0,0,0-1.36-1.24h-.93a1.43,1.43,0,0,0-.81.24L21.65,18.77a1.17,1.17,0,0,0-.25,1.77l.1.11a1.45,1.45,0,0,0,1.9.2q8.31-5.94,8.79-6.33c.34-.27.67-.55,1-.85-.25,3-.38,6-.38,8.78Z"/><path class="cls-2" d="M62,21.49a7.49,7.49,0,0,0-1,14.93,29.93,29.93,0,0,1-1.38,5.52A29.11,29.11,0,0,1,52,53.49a29.4,29.4,0,1,1,1.45-41.55,1.3,1.3,0,1,0,1.9-1.77,32,32,0,1,0,6.72,32.64,31.65,31.65,0,0,0,1.58-6.52A7.5,7.5,0,0,0,62,21.49Zm1.95,12.1A4.89,4.89,0,0,1,62,34a5.23,5.23,0,0,1-.68-.07,5,5,0,1,1,2.63-.33Z"/></g></g></svg>