<svg xmlns="http://www.w3.org/2000/svg" viewBox="0 0 69.6 63.98"><defs><style>.cls-1{fill:#f432e9;}</style></defs><title>step6</title><g id="Layer_2" data-name="Layer 2"><g id="Layer_2-2" data-name="Layer 2"><path class="cls-1" d="M17.45,34.93a33.28,33.28,0,0,1,2.18-12.86,16.14,16.14,0,0,1,6.19-7.73,17.84,17.84,0,0,1,9.68-2.52,18.32,18.32,0,0,1,4,.4,1.11,1.11,0,0,1,.88,1.08h0a1.16,1.16,0,0,1-1.46,1.08,17.73,17.73,0,0,0-3.49-.32q-7,0-10.83,4.77T20.21,32.73h.36a14.48,14.48,0,0,1,4.9-4,13.25,13.25,0,0,1,5.83-1.34q5.77,0,9,3.14t3.25,8.65q0,6-3.42,9.48a12.38,12.38,0,0,1-9.22,3.47,12,12,0,0,1-9.88-4.54Q17.45,43.08,17.45,34.93ZM30.94,49.8A9.33,9.33,0,0,0,38.12,47q2.57-2.76,2.56-7.88a9.42,9.42,0,0,0-2.54-7,9.32,9.32,0,0,0-6.89-2.52,12,12,0,0,0-5.34,1.2A10.61,10.61,0,0,0,22,34a6.81,6.81,0,0,0-1.46,4.09,12.47,12.47,0,0,0,1.39,5.72,11.35,11.35,0,0,0,3.77,4.35A9.14,9.14,0,0,0,30.94,49.8Z"/><path class="cls-1" d="M63.22,26.09a7.5,7.5,0,0,0-3.17,14.62A29.84,29.84,0,0,1,57.86,46,28.91,28.91,0,0,1,48.6,56.24a29.39,29.39,0,1,1,7.64-40.86,1.3,1.3,0,0,0,2.15-1.47A32.17,32.17,0,1,0,62.69,41a7.5,7.5,0,0,0,.53-14.89Zm.12,12.26a5.09,5.09,0,0,1-2,.1,5.83,5.83,0,0,1-.66-.17,5,5,0,1,1,2.65.07Z"/></g></g></svg>