<svg xmlns="http://www.w3.org/2000/svg" viewBox="0 0 63.99 63.99"><defs><style>.cls-1{fill:#c200ff;}</style></defs><title>step4</title><g id="Layer_2" data-name="Layer 2"><g id="Layer_2-2" data-name="Layer 2"><path class="cls-1" d="M0,32.78A32,32,0,1,0,31.21,0a1.3,1.3,0,1,0,.07,2.6A29.39,29.39,0,1,1,2.61,32.72,29,29,0,0,1,5.53,19.19a29.72,29.72,0,0,1,3-4.85,7.48,7.48,0,1,0-1.76-2A31.77,31.77,0,0,0,0,32.78ZM9.65,4.89a5,5,0,1,1,.45,7.51A4.32,4.32,0,0,1,9.58,12,4.7,4.7,0,0,1,8.5,10.29,5,5,0,0,1,9.65,4.89Z"/><path class="cls-1" d="M46.6,42.21H40.47v9.55a1.37,1.37,0,0,1-1.37,1.38h0a1.37,1.37,0,0,1-1.38-1.38V42.21h-22v-2L36.55,10.59a1.27,1.27,0,0,1,1-.53h1.63a1.25,1.25,0,0,1,1.26,1.26V39.69H46.6A1.26,1.26,0,0,1,47.86,41h0A1.26,1.26,0,0,1,46.6,42.21Zm-8.88-2.52V27.44q0-8.85.41-14.86h-.24q-.59,1.08-3.6,5.51L19.17,39.69Z"/></g></g></svg>