<svg xmlns="http://www.w3.org/2000/svg" viewBox="0 0 64.56 63.99"><defs><style>.cls-1{fill:#987efb;}</style></defs><title>step5</title><g id="Layer_2" data-name="Layer 2"><g id="Layer_2-2" data-name="Layer 2"><path class="cls-1" d="M30.69,27.49q6.82,0,10.75,3.08A10.18,10.18,0,0,1,45.36,39q0,6.12-4.08,9.53T30,52a30,30,0,0,1-6-.58,17.77,17.77,0,0,1-4-1.28,1.33,1.33,0,0,1-.77-1.19h0A1.31,1.31,0,0,1,21,47.72,24.33,24.33,0,0,0,24.8,49a22.38,22.38,0,0,0,5.22.59c3.73,0,6.73-.92,9-2.77a9.12,9.12,0,0,0,3.38-7.47,8.31,8.31,0,0,0-3.29-7q-3.3-2.53-9-2.53a31.79,31.79,0,0,0-7.93,1.06l-1.75-1.06,1.69-18.22H41.37a1.31,1.31,0,0,1,1.31,1.31h0a1.31,1.31,0,0,1-1.31,1.3H24.89L23.58,28.28A43.93,43.93,0,0,1,30.69,27.49Z"/><path class="cls-1" d="M61.83,43A7.49,7.49,0,0,0,51.61,53.88,29.8,29.8,0,0,1,47,57.27,29.41,29.41,0,1,1,61.34,30.18,1.3,1.3,0,1,0,63.93,30,32,32,0,1,0,53.74,55.47,7.5,7.5,0,0,0,61.83,43ZM55.65,53.54a4.83,4.83,0,0,1-1.76-.93,4.43,4.43,0,0,1-.48-.49,5,5,0,1,1,2.24,1.42Z"/></g></g></svg>