<svg xmlns="http://www.w3.org/2000/svg" viewBox="0 0 63.99 63.99"><defs><style>.cls-1{fill:#0064b2;}</style></defs><title>step3</title><g id="Layer_2" data-name="Layer 2"><g id="Layer_2-2" data-name="Layer 2"><path class="cls-1" d="M60.46,17.37a32,32,0,0,0-3.69-5.61,7.49,7.49,0,1,0-1.71,2A29.39,29.39,0,1,1,32,2.6,1.3,1.3,0,0,0,32,0,32,32,0,1,0,60.46,17.37ZM55,9.74a4.9,4.9,0,0,1-1,1.69,3.65,3.65,0,0,1-.51.45A5,5,0,1,1,55,9.74Z"/><path class="cls-1" d="M42.41,39.59A10,10,0,0,1,39,47.7c-2.29,1.91-5.6,2.87-9.9,2.87a20.83,20.83,0,0,1-9-1.82,1.09,1.09,0,0,1-.62-1v-.1a1.07,1.07,0,0,1,1.49-1,20.19,20.19,0,0,0,3.16,1,20.43,20.43,0,0,0,4.84.63q5.44,0,8.19-2.28a7.94,7.94,0,0,0,2.73-6.45,6.54,6.54,0,0,0-2.8-5.69q-2.79-2-8.22-2h-2.7V29.46h2.75a10.73,10.73,0,0,0,7.12-2.21,7.41,7.41,0,0,0,2.62-6,6.33,6.33,0,0,0-2.13-5A8.16,8.16,0,0,0,31,14.4a14.68,14.68,0,0,0-4.9.78,20.18,20.18,0,0,0-4.14,2.1A1,1,0,0,1,20.48,17a1.14,1.14,0,0,1,.26-1.57,16.2,16.2,0,0,1,4.18-2.18,17.74,17.74,0,0,1,6-1.06q5,0,7.7,2.44a8.79,8.79,0,0,1,2.71,6.88,8.5,8.5,0,0,1-2.11,5.85,9.65,9.65,0,0,1-5.66,3v.16a10.87,10.87,0,0,1,6.61,2.86A8.4,8.4,0,0,1,42.41,39.59Z"/></g></g></svg>