<svg xmlns="http://www.w3.org/2000/svg" viewBox="0 0 66.95 64"><defs><style>.cls-1{fill:#7d5ff5;}</style></defs><title>step2</title><g id="Layer_2" data-name="Layer 2"><g id="Layer_2-2" data-name="Layer 2"><path class="cls-1" d="M27.83,63.19A32,32,0,1,0,3.76,24.88a1.3,1.3,0,1,0,2.53.58,29.4,29.4,0,1,1,22.12,35.2A29.13,29.13,0,0,1,16,54.5a30.62,30.62,0,0,1-4-4.08A7.48,7.48,0,1,0,9.7,51.64a30.8,30.8,0,0,0,4.64,4.84A31.9,31.9,0,0,0,27.83,63.19ZM3.18,47a5,5,0,1,1,7.38,1.41,5.61,5.61,0,0,1-.55.41,5.09,5.09,0,0,1-1.89.63A5,5,0,0,1,3.18,47Z"/><path class="cls-1" d="M47.24,49.47H22.87V47.15L33.81,36.48a79.06,79.06,0,0,0,6.46-6.83A18.93,18.93,0,0,0,43,25.12a11.92,11.92,0,0,0,.87-4.52A7.17,7.17,0,0,0,41.45,15a9,9,0,0,0-6.27-2.15,15.82,15.82,0,0,0-8.89,2.83,1.27,1.27,0,0,1-1.67-.21l-.06-.06a1.09,1.09,0,0,1,.25-1.61,17.86,17.86,0,0,1,10.43-3.32q5.37,0,8.45,2.68a9.3,9.3,0,0,1,3.08,7.39,14.46,14.46,0,0,1-2.07,7.37,43.66,43.66,0,0,1-7.55,8.8L26.61,46.84v.1H47.24a1.31,1.31,0,0,1,1.35,1.27h0A1.31,1.31,0,0,1,47.24,49.47Z"/></g></g></svg>