<?xml version="1.0" encoding="UTF-8"?>
<svg width="32px" height="19px" viewBox="0 0 32 19" version="1.1" xmlns="http://www.w3.org/2000/svg" xmlns:xlink="http://www.w3.org/1999/xlink">
    <!-- Generator: Sketch 47.1 (45422) - http://www.bohemiancoding.com/sketch -->
    <title>logo/toolzpro</title>
    <desc>Created with Sketch.</desc>
    <defs>
        <linearGradient x1="-216.068559%" y1="49.8373455%" x2="228.548473%" y2="49.8373455%" id="linearGradient-1">
            <stop stop-color="#7CD2CB" offset="0%"></stop>
            <stop stop-color="#6ACCC8" offset="8%"></stop>
            <stop stop-color="#4FC3C4" offset="22%"></stop>
            <stop stop-color="#3CBCC0" offset="36%"></stop>
            <stop stop-color="#31B8BF" offset="51%"></stop>
            <stop stop-color="#2DB7BE" offset="67%"></stop>
            <stop stop-color="#2DA1BE" offset="98%"></stop>
        </linearGradient>
        <linearGradient x1="-6257%" y1="3751%" x2="11776%" y2="3751%" id="linearGradient-2">
            <stop stop-color="#7CD2CB" offset="0%"></stop>
            <stop stop-color="#6ACCC8" offset="8%"></stop>
            <stop stop-color="#4FC3C4" offset="22%"></stop>
            <stop stop-color="#3CBCC0" offset="36%"></stop>
            <stop stop-color="#31B8BF" offset="51%"></stop>
            <stop stop-color="#2DB7BE" offset="67%"></stop>
            <stop stop-color="#2DA1BE" offset="98%"></stop>
        </linearGradient>
        <linearGradient x1="-79652%" y1="3025%" x2="19165%" y2="3025%" id="linearGradient-3">
            <stop stop-color="#7CD2CB" offset="0%"></stop>
            <stop stop-color="#6ACCC8" offset="8%"></stop>
            <stop stop-color="#4FC3C4" offset="22%"></stop>
            <stop stop-color="#3CBCC0" offset="36%"></stop>
            <stop stop-color="#31B8BF" offset="51%"></stop>
            <stop stop-color="#2DB7BE" offset="67%"></stop>
            <stop stop-color="#2DA1BE" offset="98%"></stop>
        </linearGradient>
        <linearGradient x1="-79652%" y1="7934%" x2="19165%" y2="7934%" id="linearGradient-4">
            <stop stop-color="#7CD2CB" offset="0%"></stop>
            <stop stop-color="#6ACCC8" offset="8%"></stop>
            <stop stop-color="#4FC3C4" offset="22%"></stop>
            <stop stop-color="#3CBCC0" offset="36%"></stop>
            <stop stop-color="#31B8BF" offset="51%"></stop>
            <stop stop-color="#2DB7BE" offset="67%"></stop>
            <stop stop-color="#2DA1BE" offset="98%"></stop>
        </linearGradient>
        <linearGradient x1="-79651%" y1="3664%" x2="19166%" y2="3664%" id="linearGradient-5">
            <stop stop-color="#7CD2CB" offset="0%"></stop>
            <stop stop-color="#6ACCC8" offset="8%"></stop>
            <stop stop-color="#4FC3C4" offset="22%"></stop>
            <stop stop-color="#3CBCC0" offset="36%"></stop>
            <stop stop-color="#31B8BF" offset="51%"></stop>
            <stop stop-color="#2DB7BE" offset="67%"></stop>
            <stop stop-color="#2DA1BE" offset="98%"></stop>
        </linearGradient>
        <linearGradient x1="-55.8792924%" y1="151.890846%" x2="89.8022893%" y2="21.3879129%" id="linearGradient-6">
            <stop stop-color="#7CD2CB" offset="0%"></stop>
            <stop stop-color="#4FC3C4" offset="22%"></stop>
            <stop stop-color="#2DA3AC" offset="98%"></stop>
        </linearGradient>
        <linearGradient x1="36.4347833%" y1="72.0690525%" x2="91.378992%" y2="5.47565145%" id="linearGradient-7">
            <stop stop-color="#5AC7B8" offset="0%"></stop>
            <stop stop-color="#2DA1BE" offset="98%"></stop>
        </linearGradient>
        <linearGradient x1="-79652%" y1="3016%" x2="19165%" y2="3016%" id="linearGradient-8">
            <stop stop-color="#7CD2CB" offset="0%"></stop>
            <stop stop-color="#6ACCC8" offset="8%"></stop>
            <stop stop-color="#4FC3C4" offset="22%"></stop>
            <stop stop-color="#3CBCC0" offset="36%"></stop>
            <stop stop-color="#31B8BF" offset="51%"></stop>
            <stop stop-color="#2DB7BE" offset="67%"></stop>
            <stop stop-color="#2DA1BE" offset="98%"></stop>
        </linearGradient>
        <linearGradient x1="-885.833333%" y1="542.105263%" x2="-174.166667%" y2="158.054226%" id="linearGradient-9">
            <stop stop-color="#F97A66" offset="0%"></stop>
            <stop stop-color="#F75940" offset="24%"></stop>
            <stop stop-color="#F74B40" offset="98%"></stop>
        </linearGradient>
        <linearGradient x1="8157%" y1="86.4037333%" x2="9865%" y2="128.347733%" id="linearGradient-10">
            <stop stop-color="#F97A66" offset="0%"></stop>
            <stop stop-color="#F75940" offset="24%"></stop>
            <stop stop-color="#F74B40" offset="98%"></stop>
        </linearGradient>
        <linearGradient x1="34.6690539%" y1="95.3797193%" x2="63.8743027%" y2="9.70196646%" id="linearGradient-11">
            <stop stop-color="#6683F0" offset="0%"></stop>
            <stop stop-color="#5A5CF0" offset="24%"></stop>
            <stop stop-color="#6638F0" offset="98%"></stop>
        </linearGradient>
    </defs>
    <g id="pager" stroke="none" stroke-width="1" fill="none" fill-rule="evenodd">
        <g id="01-Start" transform="translate(-1125.000000, -707.000000)">
            <g id="logo/toolzpro" transform="translate(1125.000000, 707.000000)">
                <g id="toolzpro">
                    <path d="M19.7171717,13.0248276 C20.2455133,12.7853931 20.725528,12.4488553 21.1329293,12.0322414 C21.5412341,11.6211829 21.8672226,11.1339566 22.0929293,10.5974138 C22.3340678,10.0503196 22.4564242,9.4571089 22.4517172,8.85793103 C22.4565195,8.23865611 22.3343428,7.62512164 22.0929293,7.0562069 C21.6467655,5.96688854 20.7923155,5.10151835 19.7171717,4.65008621 C19.3198954,4.4746052 18.8976894,4.36403853 18.4662626,4.3225 L18.4662626,13.3687931 C18.8993167,13.3260548 19.3221891,13.2097765 19.7171717,13.0248276 L19.7171717,13.0248276 Z" id="Shape"></path>
                    <path d="M14.9187879,5.61318966 C14.506073,6.02431956 14.1795446,6.5156956 13.9587879,7.05784483 C13.7173743,7.62675957 13.5951976,8.24029404 13.6,8.85956897 C13.596292,9.45864578 13.7186047,10.0516446 13.9587879,10.5990517 C14.421451,11.677784 15.2645742,12.542777 16.3232323,13.0248276 L16.3232323,4.67137931 C15.8003074,4.89205784 15.32366,5.21169419 14.9187879,5.61318966 L14.9187879,5.61318966 Z" id="Shape"></path>
                    <path d="M16.3232323,0.0311206897 L16.3232323,6.80232759 C16.5248962,6.95964315 16.7160242,7.13036395 16.8953535,7.31336207 C17.4882257,7.91248161 17.9593469,8.62367386 18.2820202,9.40663793 C18.3486592,9.56053053 18.4069284,9.71800793 18.4565657,9.87836207 L18.4565657,0.0311206897 L16.3232323,0.0311206897 Z" id="Shape" fill="#FBFDFE" fill-rule="nonzero"></path>
                    <path d="M16.6933333,7.79491379 C17.5817502,8.69606243 18.1916829,9.84014925 18.4484848,11.0871552 L18.4484848,9.88 C18.3988476,9.71964586 18.3405784,9.56216846 18.2739394,9.40827586 C17.9512661,8.62531179 17.4801449,7.91411955 16.8872727,7.315 C16.7108877,7.13140767 16.5224436,6.96012541 16.3232323,6.80232759 L16.3232323,7.4575 C16.4412121,7.55905172 16.5769697,7.67698276 16.6933333,7.79491379 Z" id="Shape" fill="#FFFFFF" fill-rule="nonzero"></path>
                    <path d="M16.6933333,7.79491379 C17.5817502,8.69606243 18.1916829,9.84014925 18.4484848,11.0871552 L18.4484848,9.88 C18.3988476,9.71964586 18.3405784,9.56216846 18.2739394,9.40827586 C17.9512661,8.62531179 17.4801449,7.91411955 16.8872727,7.315 C16.7108877,7.13140767 16.5224436,6.96012541 16.3232323,6.80232759 L16.3232323,7.4575 C16.4412121,7.55905172 16.5769697,7.67698276 16.6933333,7.79491379 Z" id="Shape" fill="#DACCDE" fill-rule="nonzero"></path>
                    <path d="M16.1406061,10.1158621 C16.2101184,10.2795671 16.2710782,10.4468676 16.3232323,10.617069 L16.3232323,7.44112069 C15.8333587,7.02685974 15.28953,6.68293965 14.7070707,6.41905172 C14.5196991,6.69526685 14.3635668,6.99195822 14.2416162,7.30353448 C14.170887,7.48608671 14.1104528,7.6725656 14.0606061,7.86206897 C14.4780315,8.07277367 14.8598718,8.34919048 15.1919192,8.68103448 C15.5933709,9.09541367 15.9150941,9.58199915 16.1406061,10.1158621 L16.1406061,10.1158621 Z" id="Shape" fill="#364857" fill-rule="nonzero" opacity="0.14"></path>
                    <path d="M18.0218182,13.3982759 C17.4462195,13.4030394 16.8766898,13.278874 16.3539394,13.0346552 C16.3248485,13.1427586 16.2860606,13.2606897 16.2472727,13.3622414 C16.3636364,13.4310345 16.489697,13.4998276 16.6157576,13.5686207 L16.6254545,13.5686207 C17.1601909,13.8315176 17.7474995,13.9660305 18.3418182,13.9617241 L18.409697,13.9617241 C18.5267956,13.4548854 18.5859056,12.9360646 18.5858586,12.4155172 C18.5833743,11.9757525 18.5411781,11.5371412 18.459798,11.1051724 L18.459798,13.3786207 C18.3143989,13.3950425 18.1680804,13.4016088 18.0218182,13.3982759 Z" id="Shape" fill="#364857" fill-rule="nonzero" opacity="0.14"></path>
                    <path d="M16.6933333,7.79491379 C16.5672727,7.66715517 16.4412121,7.55905172 16.3151515,7.44112069 L16.3151515,10.617069 C16.4362941,11.0430634 16.4983039,11.4840815 16.4993939,11.9274138 C16.5000376,12.3057398 16.4511256,12.6824784 16.3539394,13.0477586 C16.8781959,13.2873692 17.4467164,13.4113145 18.0218182,13.4113793 C18.1672727,13.4113793 18.3127273,13.4015517 18.4581818,13.3917241 L18.4581818,11.1084483 C18.3737494,10.6976963 18.2503476,10.2961749 18.089697,9.90948276 C17.7604437,9.12143803 17.2866047,8.40388479 16.6933333,7.79491379 Z" id="Shape" fill="#FFFFFF" fill-rule="nonzero"></path>
                    <path d="M16.6933333,7.79491379 C16.5672727,7.66715517 16.4412121,7.55905172 16.3151515,7.44112069 L16.3151515,10.617069 C16.4362941,11.0430634 16.4983039,11.4840815 16.4993939,11.9274138 C16.5000376,12.3057398 16.4511256,12.6824784 16.3539394,13.0477586 C16.8781959,13.2873692 17.4467164,13.4113145 18.0218182,13.4113793 C18.1672727,13.4113793 18.3127273,13.4015517 18.4581818,13.3917241 L18.4581818,11.1084483 C18.3737494,10.6976963 18.2503476,10.2961749 18.089697,9.90948276 C17.7604437,9.12143803 17.2866047,8.40388479 16.6933333,7.79491379 Z" id="Shape" fill="#364857" fill-rule="nonzero" opacity="0.14"></path>
                    <path d="M16.6545455,15.9141379 L16.4315152,15.8551724 C16.5030861,16.2449274 16.6374029,16.620104 16.8290909,16.9656897 C17.0949187,16.6870565 17.3351063,16.3844226 17.5466667,16.0615517 C17.2468339,16.0291566 16.9490033,15.9799432 16.6545455,15.9141379 L16.6545455,15.9141379 Z" id="Shape" fill="#FFFFFF" fill-rule="nonzero"></path>
                    <path d="M1.84565657,7.78590517 L1.84565657,15.6487931 C1.84565657,16.6118966 2.04929293,17.2998276 2.45656566,17.7224138 C2.86383838,18.145 3.61050505,18.3448276 4.70626263,18.3448276 C4.95838384,18.3448276 5.36565657,18.335 5.58868687,18.335 C5.77292929,18.335 6.39676768,18.3153448 6.72,18.2956897 C6.52606061,18.1318966 6.35151515,17.9681034 6.1769697,17.8043103 C5.73853615,17.3609034 5.35534595,16.8647374 5.0359596,16.3268966 C4.6189899,16.3268966 4.33777778,16.2581034 4.19232323,16.1205172 C4.04686869,15.982931 3.9789899,15.747069 3.9789899,15.412931 L3.9789899,7.71465517 L5.4820202,7.71465517 C5.70951478,7.40502751 5.95907065,7.11269447 6.22868687,6.84 C6.61355131,6.45391415 7.03589506,6.10819547 7.48929293,5.80810345 L3.98868687,5.80810345 L3.98868687,2.75336207 L1.84565657,2.75336207 L1.84565657,7.78590517 L1.84565657,7.69663793 L1.84565657,5.79008621 L1.84565657,5.61318966 L1.8359596,5.61318966 L1.82626263,5.61318966 L1.81656566,5.61318966 L1.80686869,5.61318966 L1.79717172,5.61318966 L1.78747475,5.61318966 L1.77777778,5.61318966 L1.76808081,5.61318966 L1.75838384,5.61318966 L1.74868687,5.61318966 L1.7389899,5.61318966 L1.72929293,5.61318966 L1.71959596,5.61318966 L1.70989899,5.61318966 L1.70020202,5.61318966 L1.69050505,5.61318966 L1.68080808,5.61318966 L1.67111111,5.61318966 L1.66141414,5.61318966 L1.65171717,5.61318966 L1.6420202,5.61318966 L1.63232323,5.61318966 L1.62262626,5.61318966 L1.61292929,5.61318966 L1.60323232,5.61318966 L1.59353535,5.61318966 L1.58383838,5.61318966 L1.57414141,5.61318966 L1.56444444,5.61318966 L1.55474747,5.61318966 L1.54505051,5.61318966 L1.53535354,5.61318966 L1.52565657,5.61318966 L1.5159596,5.61318966 L1.50626263,5.61318966 L1.49656566,5.61318966 L1.48686869,5.61318966 L1.47717172,5.61318966 L1.46747475,5.61318966 L1.45777778,5.61318966 L1.44808081,5.61318966 L1.43838384,5.61318966 L1.42868687,5.61318966 L1.4189899,5.61318966 L1.40929293,5.61318966 L1.39959596,5.61318966 L1.38989899,5.61318966 L1.38020202,5.61318966 L1.37050505,5.61318966 L1.36080808,5.61318966 L1.35111111,5.61318966 L1.34141414,5.61318966 L1.33171717,5.61318966 L1.3220202,5.61318966 L1.31232323,5.61318966 L1.30262626,5.61318966 L1.29292929,5.61318966 L1.28323232,5.61318966 L1.27353535,5.61318966 L1.26383838,5.61318966 L1.25414141,5.61318966 L1.24444444,5.61318966 L1.23474747,5.61318966 L1.22505051,5.61318966 L1.21535354,5.61318966 L1.20565657,5.61318966 L1.1959596,5.61318966 L1.18626263,5.61318966 L1.17656566,5.61318966 L1.16686869,5.61318966 L1.15717172,5.61318966 L1.14747475,5.61318966 L1.13777778,5.61318966 L1.12808081,5.61318966 L1.11838384,5.61318966 L1.10868687,5.61318966 L1.0989899,5.61318966 L1.08929293,5.61318966 L1.07959596,5.61318966 L1.06989899,5.61318966 L1.06020202,5.61318966 L1.05050505,5.61318966 L1.04080808,5.61318966 L1.03111111,5.61318966 L1.02141414,5.61318966 L1.01010101,5.61318966 L1.0020202,5.61318966 L0.990707071,5.61318966 L0.982626263,5.61318966 L0.971313131,5.61318966 L0.963232323,5.61318966 L0.951919192,5.61318966 L0.942222222,5.61318966 L0.934141414,5.61318966 L0.922828283,5.61318966 L0.914747475,5.61318966 L0.903434343,5.61318966 L0.895353535,5.61318966 L0.884040404,5.61318966 L0.875959596,5.61318966 L0.866262626,5.61318966 L0.854949495,5.61318966 L0.846868687,5.61318966 L0.835555556,5.61318966 L0.827474747,5.61318966 L0.816161616,5.61318966 L0.808080808,5.61318966 L0.796767677,5.61318966 L0.788686869,5.61318966 L0.778989899,5.61318966 L0.767676768,5.61318966 L0.75959596,5.61318966 L0.748282828,5.61318966 L0.74020202,5.61318966 L0.728888889,5.61318966 L0.720808081,5.61318966 L0.709494949,5.61318966 L0.69979798,5.61318966 L0.691717172,5.61318966 L0.68040404,5.61318966 L0.672323232,5.61318966 L0.661010101,5.61318966 L0.652929293,5.61318966 L0.641616162,5.61318966 L0.633535354,5.61318966 L0.623838384,5.61318966 L0.612525253,5.61318966 L0.604444444,5.61318966 L0.593131313,5.61318966 L0.585050505,5.61318966 L0.573737374,5.61318966 L0.565656566,5.61318966 L0.554343434,5.61318966 L0.546262626,5.61318966 L0.536565657,5.61318966 L0.525252525,5.61318966 L0.517171717,5.61318966 L0.505858586,5.61318966 L0.497777778,5.61318966 L0.486464646,5.61318966 L0.478383838,5.61318966 L0.468686869,5.61318966 L0.457373737,5.61318966 L0.447676768,5.61318966 L0.437979798,5.61318966 L0.428282828,5.61318966 L0.42020202,5.61318966 L0.410505051,5.61318966 L0.400808081,5.61318966 L0.391111111,5.61318966 L0.37979798,5.61318966 L0.37010101,5.61318966 L0.36040404,5.61318966 L0.350707071,5.61318966 L0.342626263,5.61318966 L0.332929293,5.61318966 L0.323232323,5.61318966 L0.313535354,5.61318966 L0.303838384,5.61318966 L0.292525253,5.61318966 L0.282828283,5.61318966 L0.273131313,5.61318966 L0.263434343,5.61318966 L0.255353535,5.61318966 L0.245656566,5.61318966 L0.235959596,5.61318966 L0.226262626,5.61318966 L0.214949495,5.61318966 L0.205252525,5.61318966 L0.195555556,5.61318966 L0.185858586,5.61318966 L0.148686869,5.61318966 L0.148686869,7.87517241 L0.185858586,7.87517241 L0.195555556,7.87517241 L0.205252525,7.87517241 L0.214949495,7.87517241 L0.226262626,7.87517241 L0.235959596,7.87517241 L0.245656566,7.87517241 L0.255353535,7.87517241 L0.263434343,7.87517241 L0.273131313,7.87517241 L0.282828283,7.87517241 L0.292525253,7.87517241 L0.303838384,7.87517241 L0.313535354,7.87517241 L0.323232323,7.87517241 L0.332929293,7.87517241 L0.342626263,7.87517241 L0.350707071,7.87517241 L0.36040404,7.87517241 L0.37010101,7.87517241 L0.37979798,7.87517241 L0.391111111,7.87517241 L0.400808081,7.87517241 L0.410505051,7.87517241 L0.42020202,7.87517241 L0.428282828,7.87517241 L0.437979798,7.87517241 L0.447676768,7.87517241 L0.457373737,7.87517241 L0.468686869,7.87517241 L0.478383838,7.87517241 L0.486464646,7.87517241 L0.497777778,7.87517241 L0.505858586,7.87517241 L0.517171717,7.87517241 L0.525252525,7.87517241 L0.536565657,7.87517241 L0.546262626,7.87517241 L0.554343434,7.87517241 L0.565656566,7.87517241 L0.573737374,7.87517241 L0.585050505,7.87517241 L0.593131313,7.87517241 L0.604444444,7.87517241 L0.612525253,7.87517241 L0.623838384,7.87517241 L0.633535354,7.87517241 L0.641616162,7.87517241 L0.652929293,7.87517241 L0.661010101,7.87517241 L0.672323232,7.87517241 L0.68040404,7.87517241 L0.691717172,7.87517241 L0.69979798,7.87517241 L0.709494949,7.87517241 L0.720808081,7.87517241 L0.728888889,7.87517241 L0.74020202,7.87517241 L0.748282828,7.87517241 L0.75959596,7.87517241 L0.767676768,7.87517241 L0.778989899,7.87517241 L0.788686869,7.87517241 L0.796767677,7.87517241 L0.808080808,7.87517241 L0.816161616,7.87517241 L0.827474747,7.87517241 L0.835555556,7.87517241 L0.846868687,7.87517241 L0.854949495,7.87517241 L0.866262626,7.87517241 L0.875959596,7.87517241 L0.884040404,7.87517241 L0.895353535,7.87517241 L0.903434343,7.87517241 L0.914747475,7.87517241 L0.922828283,7.87517241 L0.934141414,7.87517241 L0.942222222,7.87517241 L0.951919192,7.87517241 L0.963232323,7.87517241 L0.971313131,7.87517241 L0.982626263,7.87517241 L0.990707071,7.87517241 L1.0020202,7.87517241 L1.01010101,7.87517241 L1.02141414,7.87517241 L1.03111111,7.87517241 L1.04080808,7.87517241 L1.05050505,7.87517241 L1.06020202,7.87517241 L1.06989899,7.87517241 L1.07959596,7.87517241 L1.08929293,7.87517241 L1.0989899,7.87517241 L1.10868687,7.87517241 L1.11838384,7.87517241 L1.12808081,7.87517241 L1.13777778,7.87517241 L1.14747475,7.87517241 L1.15717172,7.87517241 L1.16686869,7.87517241 L1.17656566,7.87517241 L1.18626263,7.87517241 L1.1959596,7.87517241 L1.20565657,7.87517241 L1.21535354,7.87517241 L1.22505051,7.87517241 L1.23474747,7.87517241 L1.24444444,7.87517241 L1.25414141,7.87517241 L1.26383838,7.87517241 L1.27353535,7.87517241 L1.28323232,7.87517241 L1.29292929,7.87517241 L1.30262626,7.87517241 L1.31232323,7.87517241 L1.3220202,7.87517241 L1.33171717,7.87517241 L1.34141414,7.87517241 L1.35111111,7.87517241 L1.36080808,7.87517241 L1.37050505,7.87517241 L1.38020202,7.87517241 L1.38989899,7.87517241 L1.39959596,7.87517241 L1.40929293,7.87517241 L1.4189899,7.87517241 L1.42868687,7.87517241 L1.43838384,7.87517241 L1.44808081,7.87517241 L1.45777778,7.87517241 L1.46747475,7.87517241 L1.47717172,7.87517241 L1.48686869,7.87517241 L1.49656566,7.87517241 L1.50626263,7.87517241 L1.5159596,7.87517241 L1.52565657,7.87517241 L1.53535354,7.87517241 L1.54505051,7.87517241 L1.55474747,7.87517241 L1.56444444,7.87517241 L1.57414141,7.87517241 L1.58383838,7.87517241 L1.59353535,7.87517241 L1.60323232,7.87517241 L1.61292929,7.87517241 L1.62262626,7.87517241 L1.63232323,7.87517241 L1.6420202,7.87517241 L1.65171717,7.87517241 L1.66141414,7.87517241 L1.67111111,7.87517241 L1.68080808,7.87517241 L1.69050505,7.87517241 L1.70020202,7.87517241 L1.70989899,7.87517241 L1.71959596,7.87517241 L1.72929293,7.87517241 L1.7389899,7.87517241 L1.74868687,7.87517241 L1.75838384,7.87517241 L1.76808081,7.87517241 L1.77777778,7.87517241 L1.78747475,7.87517241 L1.79717172,7.87517241 L1.80686869,7.87517241 L1.81656566,7.87517241 L1.82626263,7.87517241 L1.8359596,7.87517241 L1.84565657,7.87517241 L1.84565657,7.78590517 Z" id="Combined-Shape" fill="#FFFFFF" fill-rule="nonzero"></path>
                    <path d="M11.689697,7.86206897 L11.8836364,7.86206897 C12.4658828,7.86045379 13.0421065,7.9814899 13.5757576,8.2175 C13.7018182,8.27646552 13.8278788,8.33543103 13.9442424,8.39439655 C13.9998571,8.02599408 14.1008474,7.66611613 14.2448485,7.32318966 C14.3675709,7.01259964 14.5225151,6.71610708 14.7070707,6.4387069 L14.569697,6.38793103 C13.8818644,6.09715297 13.151068,5.92444766 12.4072727,5.87689655 C12.2840715,6.10518534 12.176086,6.34157579 12.0840404,6.58448276 C11.9009597,6.99217591 11.7685,7.42131625 11.689697,7.86206897 L11.689697,7.86206897 Z" id="Shape" fill="url(#linearGradient-1)" fill-rule="nonzero"></path>
                    <path d="M16.4315152,15.8551724 L16.6545455,15.9141379 C16.9482371,15.9839243 17.2463127,16.0331782 17.5466667,16.0615517 C17.6776659,15.8554101 17.7974408,15.6421605 17.9054545,15.4227586 C17.383796,15.4157312 16.8640992,15.3564778 16.3539394,15.2458621 C16.3635922,15.4507489 16.3895349,15.654513 16.4315152,15.8551724 L16.4315152,15.8551724 Z" id="Shape" fill="#FFFFFF" fill-rule="nonzero"></path>
                    <polygon id="Shape" fill="#FFFFFF" fill-rule="nonzero" points="28.3022222 7.69827586 22.5034343 7.69827586 22.5034343 5.79008621 31.8529293 5.79008621 25.4319192 16.4448276 30.679596 16.4448276 29.4561616 18.3448276 21.8343434 18.3448276"></polygon>
                    <path d="M24.2779798,5.79008621 L22.6618182,5.79008621 L22.6618182,7.69827586 L24.9890909,7.69827586 C24.9066296,7.31164401 24.7897887,6.93337501 24.64,6.56810345 C24.5332825,6.30232716 24.4124319,6.04260727 24.2779798,5.79008621 L24.2779798,5.79008621 Z" id="Shape" fill="#DACCDE" fill-rule="nonzero"></path>
                    <path d="M18.4678788,13.4310345 C18.0134929,13.4564226 17.5577412,13.4267296 17.110303,13.3425862 C16.8234828,13.304862 16.5409483,13.2390366 16.2666667,13.1460345 C16.2734888,13.113045 16.2701025,13.0787257 16.2569697,13.0477586 C16.2455259,13.1435213 16.2293439,13.2386411 16.2084848,13.3327586 C16.2278788,13.3425862 16.2375758,13.3524138 16.2569697,13.3622414 C16.3733333,13.4310345 16.4993939,13.4998276 16.6254545,13.5686207 L16.6351515,13.5686207 C17.1698879,13.8315176 17.7571965,13.9660305 18.3515152,13.9617241 L18.4242424,13.9617241 C18.4727273,13.7553448 18.5018182,13.5391379 18.5309091,13.3327586 C18.5028473,13.3602743 18.4812983,13.3938732 18.4678788,13.4310345 L18.4678788,13.4310345 Z" id="Shape" fill="url(#linearGradient-2)" fill-rule="nonzero"></path>
                    <path d="M16.2569697,13.1624138 C16.5325145,13.2507961 16.8146401,13.3165262 17.1006061,13.3589655 C17.5486665,13.4379223 18.003834,13.4675772 18.4581818,13.4474138 C18.4719488,13.4085495 18.4915757,13.3720822 18.5163636,13.3393103 C18.5260606,13.2606897 18.5357576,13.1918966 18.5454545,13.1132759 C18.1437192,13.1286854 17.7414209,13.1089572 17.3430303,13.0543103 C16.9828721,12.9952853 16.6289904,12.9020586 16.2860606,12.7758621 C16.2860606,12.7812897 16.2817191,12.7856897 16.2763636,12.7856897 C16.2666667,12.8741379 16.2569697,12.9724138 16.2472727,13.0608621 C16.2583311,13.0934707 16.2616531,13.1282612 16.2569697,13.1624138 Z" id="Shape" fill="#3192A8" fill-rule="nonzero"></path>
                    <path d="M17.8957576,15.4227586 L17.8957576,15.4227586 C17.9766103,15.2736103 18.0478699,15.1193234 18.1090909,14.9608621 C18.2370106,14.6426531 18.337586,14.3138462 18.409697,13.9781034 L18.4,13.9781034 C18.3248049,14.3130153 18.2243066,14.6415703 18.0993939,14.9608621 C18.0412121,15.1181034 17.9636364,15.2753448 17.8957576,15.4227586 Z" id="Shape" fill="url(#linearGradient-3)" fill-rule="nonzero"></path>
                    <path d="M11.7769697,7.46077586 C11.8549083,7.15665615 11.9520788,6.85793531 12.0678788,6.56646552 C12.1639254,6.32529383 12.2718041,6.08913724 12.3911111,5.85887931 L12.3038384,5.85887931 C12.1228453,6.22617789 11.9767328,6.61009051 11.8674747,7.00543103 C11.8351515,7.1462931 11.7979798,7.30353448 11.7769697,7.46077586 Z" id="Shape" fill="url(#linearGradient-4)" fill-rule="nonzero"></path>
                    <path d="M16.6157576,13.5751724 C17.1504939,13.8380693 17.7378025,13.9725822 18.3321212,13.9682759 L18.3321212,13.9682759 C17.7379211,13.9714743 17.150857,13.8370174 16.6157576,13.5751724 L16.6157576,13.5751724 C16.4716508,13.506226 16.3323392,13.4274233 16.1987879,13.3393103 L16.1987879,13.3393103 C16.3323392,13.4274233 16.4716508,13.506226 16.6157576,13.5751724 L16.6157576,13.5751724 Z" id="Shape" fill="url(#linearGradient-5)" fill-rule="nonzero"></path>
                    <path d="M18.4581818,11.0986207 C18.2013798,9.85161477 17.5914471,8.70752795 16.7030303,7.80637931 C16.5769697,7.67862069 16.4509091,7.57051724 16.3248485,7.45258621 C15.8349749,7.03832525 15.2911462,6.69440517 14.7086869,6.43051724 C14.5213153,6.70673237 14.365183,7.00342374 14.2432323,7.315 C14.1723579,7.49376948 14.1113876,7.67641005 14.0606061,7.86206897 C14.0115857,8.03650047 13.9727308,8.21370299 13.9442424,8.39275862 C14.8509278,8.87296655 15.5628936,9.66001298 15.9563636,10.617069 C16.1977772,11.1859837 16.3199539,11.7995182 16.3151515,12.4187931 C16.3151515,12.5465517 16.3054545,12.6644828 16.2957576,12.7922414 C16.2957576,12.7868138 16.3000991,12.7824138 16.3054545,12.7824138 C16.6495643,12.9063207 17.0030547,13.0016354 17.3624242,13.0674138 C17.7608148,13.1220606 18.1631131,13.1417889 18.5648485,13.1263793 C18.5842424,12.9003448 18.6036364,12.6644828 18.6036364,12.4286207 C18.5910303,11.9820084 18.5423831,11.5371906 18.4581818,11.0986207 Z" id="Shape" fill="url(#linearGradient-6)" fill-rule="nonzero"></path>
                    <path d="M16.6464646,15.9141379 L16.4234343,15.8551724 C16.1245564,15.7787865 15.8326029,15.6768702 15.5507071,15.5505172 L15.1725253,15.3736207 C15.1143434,15.4424138 15.0464646,15.5112069 14.9882828,15.58 C14.5793506,15.9932643 14.101034,16.3293789 13.5757576,16.5725862 C13.0458579,16.8170153 12.4706865,16.9443194 11.8884848,16.9460345 C11.2994518,16.9499535 10.7167843,16.8224558 10.1818182,16.5725862 C9.65775813,16.3306254 9.18135753,15.994318 8.77575758,15.58 C8.36745279,15.1689415 8.04146431,14.6817152 7.81575758,14.1451724 C7.57461906,13.5980782 7.45226268,13.0048675 7.4569697,12.4056897 C7.45216732,11.7864147 7.57434404,11.1728803 7.81575758,10.6039655 C8.26187682,9.51801802 9.11183105,8.65367309 10.1818182,8.19784483 C10.5201869,8.05190409 10.8752818,7.94955348 11.2387879,7.89318966 C11.2600112,7.4972309 11.3250657,7.10494254 11.4327273,6.7237069 C11.5196352,6.41287661 11.6331992,6.11034475 11.7721212,5.81956897 C10.0100709,5.82074866 8.31978431,6.52716287 7.06909091,7.78508621 C5.86336353,9.0083968 5.18367293,10.6651595 5.17818182,12.3942241 C5.17163353,13.2667664 5.33416826,14.1321241 5.65656566,14.9412069 C5.96295968,15.7228868 6.42510807,16.432138 7.01414141,17.0246552 C7.61716475,17.6339122 8.33647314,18.1121077 9.12808081,18.43 C10.0014115,18.7842959 10.934911,18.9612673 11.8755556,18.9508621 C12.8162773,18.9621663 13.7499483,18.7851624 14.6230303,18.43 C15.4127693,18.1084707 16.1313991,17.6307264 16.7369697,17.0246552 L16.8145455,16.9460345 C17.0826435,16.6694396 17.3230119,16.366578 17.5321212,16.0418966 L17.5224242,16.0418966 C17.2274549,16.0239254 16.9344642,15.9811927 16.6464646,15.9141379 L16.6464646,15.9141379 Z" id="Shape" fill="url(#linearGradient-7)" fill-rule="nonzero"></path>
                    <path d="M19.8351515,16.3268966 C19.5579776,16.3260911 19.2887714,16.2328446 19.0690909,16.0615517 C19.0206061,16.0615517 18.9721212,16.0713793 18.9236364,16.0713793 C18.7393939,16.0812069 18.5454545,16.0910345 18.3515152,16.0910345 L18.3515152,16.0910345 C18.08,16.0910345 17.8181818,16.0713793 17.5563636,16.0517241 C17.3472543,16.3764055 17.1068859,16.6792672 16.8387879,16.9558621 C16.9427187,17.1389465 17.0698604,17.3074482 17.2169697,17.457069 C17.8084848,18.0565517 18.6036364,18.3513793 19.6024242,18.3513793 L20.4848485,18.3513793 L21.7066667,16.317069 L19.8351515,16.3268966 Z" id="Shape" fill="#FFFFFF" fill-rule="nonzero"></path>
                    <path d="M15.9466667,14.155 C16.0570343,13.8980393 16.1446516,13.6316467 16.2084848,13.3589655 L16.1987879,13.3589655 C16.1368781,13.6309939 16.0525415,13.897274 15.9466667,14.155 C15.7494498,14.6003967 15.4843989,15.0116192 15.1612121,15.3736207 L15.1709091,15.3736207 C15.4889508,15.009615 15.7505266,14.5987113 15.9466667,14.155 L15.9466667,14.155 Z" id="Shape" fill="#364857" fill-rule="nonzero" opacity="0.14"></path>
                    <path d="M18.3418182,16.1008621 C18.5357576,16.1008621 18.729697,16.0910345 18.9139394,16.0812069 C18.9624242,16.0812069 19.0109091,16.0713793 19.0593939,16.0713793 C19.0012121,16.0222414 18.9333333,15.9731034 18.8751515,15.9075862 C18.7423305,15.767549 18.6433128,15.598241 18.5858586,15.412931 C18.4016162,15.4227586 18.2076768,15.4325862 18.0137374,15.4325862 L17.8973737,15.4325862 C17.793039,15.6508104 17.6731243,15.8610242 17.5385859,16.0615517 C17.8084848,16.0812069 18.070303,16.1008621 18.3418182,16.1008621 Z" id="Shape" fill="#DACCDE" fill-rule="nonzero"></path>
                    <path d="M16.4218182,15.8551724 L16.6448485,15.9141379 C16.9385401,15.9839243 17.2366157,16.0331782 17.5369697,16.0615517 L17.5466667,16.0615517 C17.6727273,15.8551724 17.7987879,15.6487931 17.9054545,15.4325862 L17.8957576,15.4325862 C17.9733333,15.2851724 18.0412121,15.127931 18.1090909,14.9706897 C18.2370106,14.6524807 18.337586,14.3236738 18.409697,13.987931 L18.3515152,13.987931 C17.7570833,13.9933042 17.1695374,13.858737 16.6351515,13.5948276 L16.6254545,13.5948276 C16.4855337,13.5274576 16.3495517,13.4519882 16.2181818,13.3687931 C16.1602618,13.6431445 16.0724507,13.9101264 15.9563636,14.1648276 C15.7661528,14.6117717 15.5039981,15.0235848 15.1806061,15.3834483 L15.1806061,15.3834483 C15.3066667,15.4424138 15.4327273,15.5112069 15.5587879,15.5603448 C15.8386978,15.6805879 16.1272017,15.7791464 16.4218182,15.8551724 L16.4218182,15.8551724 Z" id="Shape" fill="url(#linearGradient-8)" fill-rule="nonzero"></path>
                    <path d="M11.2339394,7.90301724 C11.3793939,7.88336207 11.5345455,7.8637069 11.689697,7.85387931 C11.7187879,7.7162931 11.7478788,7.5787069 11.7769697,7.45094828 C11.8060606,7.28715517 11.8351515,7.1462931 11.8739394,6.98905172 C11.9831974,6.5937112 12.1293099,6.20979858 12.310303,5.8425 C12.1648485,5.83267241 12.0193939,5.82284483 11.8739394,5.82284483 L11.7672727,5.82284483 C11.4548706,6.47459057 11.2735717,7.1828284 11.2339394,7.9062931 L11.2339394,7.90301724 Z" id="Shape" fill="#3192A8" fill-rule="nonzero"></path>
                    <path d="M13.6387879,8.23715517 C13.7357576,8.2862931 13.8424242,8.32560345 13.9393939,8.38456897 C13.9950086,8.01616649 14.0959989,7.65628854 14.24,7.31336207 C14.3642602,7.00256294 14.5208338,6.70606264 14.7070707,6.42887931 L14.5713131,6.36991379 C14.5034343,6.34043103 14.4452525,6.32077586 14.3773737,6.2912931 C14.2155613,6.53680974 14.0760023,6.79666241 13.960404,7.06767241 C13.7960216,7.43897938 13.6876066,7.83320544 13.6387879,8.23715517 L13.6387879,8.23715517 Z" id="Shape" fill="#3192A8" fill-rule="nonzero"></path>
                    <path d="M12.0678788,6.56646552 C11.8950921,6.9828891 11.7682611,7.41739623 11.689697,7.86206897 L11.8836364,7.86206897 C12.4658828,7.86045379 13.0421065,7.9814899 13.5757576,8.2175 C13.599109,8.22551552 13.6218047,8.23537328 13.6436364,8.24698276 C13.6916698,7.839526 13.800664,7.44186168 13.9668687,7.06767241 C14.0786319,6.79478683 14.2183897,6.53456387 14.3838384,6.2912931 C13.7520024,6.0506114 13.0888149,5.9049301 12.4153535,5.85887931 C12.284014,6.08658351 12.1679274,6.32297855 12.0678788,6.56646552 L12.0678788,6.56646552 Z" id="Shape" fill="#364857" fill-rule="nonzero" opacity="0.14"></path>
                    <path d="M24.2294949,6.35025862 C23.9066368,5.56787843 23.4355254,4.85725743 22.8428283,4.25862069 C22.2298173,3.64520951 21.5053609,3.15795798 20.7094949,2.8237931 C20.1136562,2.56713346 19.4824623,2.4047236 18.8379798,2.34224138 L18.6537374,4.36672414 C19.0210284,4.41398825 19.3793915,4.51610099 19.7171717,4.66974138 C20.2437168,4.89505729 20.7239268,5.21839837 21.1329293,5.62301724 C21.5456442,6.03414715 21.8721726,6.52552318 22.0929293,7.06767241 C22.3343428,7.63658716 22.4565195,8.25012163 22.4517172,8.86939655 C22.4554252,9.46847336 22.3331125,10.0614721 22.0929293,10.6088793 C21.8601838,11.141498 21.5350323,11.6274734 21.1329293,12.0437069 C20.7236924,12.4602173 20.2442167,12.7991508 19.7171717,13.0444828 C19.3210491,13.2280567 18.8989367,13.3474422 18.4662626,13.3982759 C18.3213989,13.4146249 18.1756226,13.4211911 18.029899,13.417931 C17.4408659,13.4218501 16.8581984,13.2943523 16.3232323,13.0444828 L16.3232323,13.0444828 C15.8031448,12.8048548 15.3300838,12.4719152 14.9268687,12.0617241 C14.5185639,11.6506656 14.1925754,11.1634393 13.9668687,10.6268966 C13.7257302,10.0798024 13.6033738,9.48659165 13.6080808,8.88741379 C13.6062025,8.67708968 13.6191648,8.4668986 13.6468687,8.25844828 C13.6949022,7.85099152 13.8038963,7.4533272 13.970101,7.07913793 C14.0818642,6.80625235 14.221622,6.54602938 14.3870707,6.30275862 C14.5465936,6.06292523 14.7284355,5.83914298 14.930101,5.63448276 C15.2647025,5.3057294 15.646045,5.02967285 16.0614141,4.81551724 C16.1273543,4.77878275 16.1953481,4.74596866 16.2650505,4.71724138 C16.2747475,4.71724138 16.2747475,4.70741379 16.2844444,4.70741379 L16.1228283,2.55517241 C15.8557283,2.63061033 15.5934221,2.72250543 15.3373737,2.83034483 C14.5486439,3.16715688 13.8310198,3.65424126 13.2234343,4.26517241 C12.0098043,5.48607465 11.322913,7.14456901 11.3131313,8.87758621 C11.3088476,9.75001419 11.4735778,10.6148106 11.7979798,11.422931 C12.1043738,12.2046109 12.5665222,12.9138621 13.1555556,13.5063793 C13.7586997,14.1130952 14.4774004,14.5890231 15.2678788,14.9051724 C15.6191824,15.052061 15.9826193,15.1671649 16.3539394,15.2491379 C16.9051075,15.3698352 17.4676358,15.4291526 18.0315152,15.4260345 C18.2254545,15.4260345 18.409697,15.4162069 18.6036364,15.4063793 C19.3569053,15.3665046 20.0979873,15.1970166 20.7951515,14.9051724 C21.5848905,14.5836432 22.3035203,14.1058988 22.9090909,13.4998276 C23.4949929,12.9047168 23.9566895,12.196159 24.2666667,11.4163793 C24.5874734,10.6097356 24.749439,9.74726732 24.7434343,8.87758621 C24.7322842,8.00968382 24.5578527,7.15190648 24.2294949,6.35025862 Z" id="Shape" fill="url(#linearGradient-11)" fill-rule="nonzero"></path>
                </g>
            </g>
        </g>
    </g>
</svg>