<?xml version="1.0" encoding="UTF-8"?>
<svg width="15px" height="12px" viewBox="0 0 15 12" version="1.1" xmlns="http://www.w3.org/2000/svg" xmlns:xlink="http://www.w3.org/1999/xlink">
    <!-- Generator: Sketch 47.1 (45422) - http://www.bohemiancoding.com/sketch -->
    <title>twitter</title>
    <desc>Created with Sketch.</desc>
    <defs></defs>
    <g id="pager" stroke="none" stroke-width="1" fill="none" fill-rule="evenodd">
        <g id="01-Start" transform="translate(-54.000000, -530.000000)">
            <g id="Group-4" transform="translate(28.000000, 527.000000)">
                <g id="twitter" transform="translate(24.000000, 0.000000)">
                    <path d="M16.8453608,4.42268041 C16.2886598,4.67010309 15.7319588,4.8556701 15.1134021,4.91752577 C15.7319588,4.54639175 16.2268041,3.92783505 16.4742268,3.24742268 C15.8556701,3.6185567 15.2371134,3.86597938 14.556701,3.98969072 C14,3.37113402 13.1958763,3 12.3298969,3 C10.6597938,3 9.29896907,4.36082474 9.29896907,6.03092784 C9.29896907,6.27835052 9.29896907,6.5257732 9.36082474,6.71134021 C6.7628866,6.58762887 4.53608247,5.35051546 3.05154639,3.49484536 C2.74226804,3.98969072 2.6185567,4.48453608 2.6185567,5.04123711 C2.6185567,6.09278351 3.17525773,7.02061856 3.97938144,7.57731959 C3.48453608,7.57731959 2.98969072,7.45360825 2.6185567,7.20618557 C2.6185567,7.20618557 2.6185567,7.20618557 2.6185567,7.26804124 C2.6185567,8.75257732 3.67010309,9.98969072 5.03092784,10.2371134 C4.78350515,10.2989691 4.53608247,10.3608247 4.22680412,10.3608247 C4.04123711,10.3608247 3.8556701,10.3608247 3.67010309,10.2989691 C4.04123711,11.5360825 5.15463918,12.4020619 6.51546392,12.4020619 C5.46391753,13.2061856 4.16494845,13.7010309 2.74226804,13.7010309 C2.49484536,13.7010309 2.24742268,13.7010309 2,13.6391753 C3.36082474,14.5051546 4.96907216,15 6.63917526,15 C12.2680412,15 15.2989691,10.3608247 15.2989691,6.34020619 L15.2989691,5.96907216 C15.9175258,5.53608247 16.4123711,4.97938144 16.8453608,4.42268041 Z" id="Mask" fill="#74E7DF"></path>
                    <rect id="Bounding-Box" x="0" y="0" width="18" height="18"></rect>
                </g>
            </g>
        </g>
    </g>
</svg>