<?xml version="1.0" encoding="UTF-8"?>
<svg width="18px" height="11px" viewBox="0 0 18 11" version="1.1" xmlns="http://www.w3.org/2000/svg" xmlns:xlink="http://www.w3.org/1999/xlink">
    <!-- Generator: Sketch 47.1 (45422) - http://www.bohemiancoding.com/sketch -->
    <title>vk</title>
    <desc>Created with Sketch.</desc>
    <defs></defs>
    <g id="pager" stroke="none" stroke-width="1" fill="none" fill-rule="evenodd">
        <g id="01-Start" transform="translate(-36.000000, -559.000000)">
            <g id="Group-4" transform="translate(28.000000, 527.000000)">
                <g id="vk" transform="translate(8.000000, 28.000000)">
                    <path d="M15.4046641,10.4406162 C15.9983972,11.020294 16.6250632,11.5656864 17.1575764,12.2038201 C17.3928113,12.4873958 17.6155201,12.7800281 17.785889,13.1091219 C18.0272989,13.5769455 17.808648,14.0917572 17.3891652,14.1196914 L14.7815854,14.1185152 C14.1090486,14.1743247 13.5725364,13.9035692 13.1214145,13.4437437 C12.7603876,13.0760126 12.4260599,12.6846404 12.0789119,12.3045006 C11.9365947,12.1491279 11.7876321,12.0029294 11.6096769,11.8873702 C11.2537075,11.6563106 10.9447264,11.7270576 10.7413069,12.0983172 C10.5341237,12.4759281 10.4871355,12.8940583 10.4667877,13.3148937 C10.4388536,13.9289158 10.2532532,14.0903458 9.63646703,14.1184564 C8.3183278,14.1806172 7.06734815,13.9811968 5.90522853,13.3162463 C4.88066255,12.7300407 4.0861564,11.902484 3.39462435,10.9656019 C2.04819812,9.1412958 1.01710437,7.13668208 0.0903961553,5.07590601 C-0.118198466,4.61161096 0.0343514204,4.36237949 0.546634406,4.35355818 C1.39730292,4.33703292 2.24785381,4.3382091 3.09952207,4.35238201 C3.44525868,4.35743956 3.67414232,4.55574265 3.80763818,4.88236642 C4.26787542,6.01402312 4.83102797,7.09069364 5.5379091,8.08867806 C5.72615589,8.35437597 5.91810764,8.62007389 6.19145069,8.8070857 C6.49384526,9.01415129 6.7240815,8.94552149 6.86633986,8.60866499 C6.95661128,8.39507163 6.99613076,8.16501181 7.01647859,7.93624579 C7.08387341,7.14920834 7.09275353,6.3635235 6.97454795,5.57925006 C6.90197796,5.08978487 6.62628256,4.77292335 6.13787592,4.68029957 C5.88864446,4.63307615 5.92575278,4.54033476 6.04642832,4.3980764 C6.25602269,4.15272631 6.45314961,4 6.84610965,4 L9.79307472,4 C10.2570169,4.09156522 10.3600498,4.29998341 10.4235633,4.76680724 L10.4260921,8.04027846 C10.4210345,8.22099774 10.5163635,8.75727469 10.8418699,8.87689168 C11.1023926,8.96204675 11.2741142,8.75362855 11.4304278,8.58843478 C12.1360152,7.83956421 12.6395944,6.95455139 13.0894814,6.03813471 C13.289137,5.63517718 13.4607998,5.21669414 13.6271697,4.79856396 C13.7504328,4.48828902 13.9438548,4.33562151 14.2933552,4.34238452 L17.1296422,4.34491329 C17.2137387,4.34491329 17.298835,4.34614828 17.3802851,4.36008595 C17.8582238,4.44153606 17.9891908,4.64713144 17.8415809,5.11383765 C17.6089923,5.84606534 17.156459,6.45626489 16.713982,7.06928726 C16.2409832,7.72376979 15.7351104,8.35584619 15.2660518,9.0142101 C14.8351014,9.61541191 14.869328,9.91845338 15.4046641,10.4406162 L15.4046641,10.4406162 Z" id="XMLID_807_" fill="#0064B2" fill-rule="nonzero"></path>
                    <rect id="Bounding-Box" x="0" y="0" width="18" height="18"></rect>
                </g>
            </g>
        </g>
    </g>
</svg>